<mxfile host="app.diagrams.net" modified="2023-12-06T18:59:26.175Z" agent="Mozilla/5.0 (Windows NT 10.0; Win64; x64; rv:120.0) Gecko/20100101 Firefox/120.0" etag="Pk0Spcs-LzI-FjnyJPLn" version="22.1.7" type="github">
  <diagram name="Page-1" id="dSukQ-KBUVypzVUfsCuS">
    <mxGraphModel dx="2474" dy="1156" grid="0" gridSize="10" guides="1" tooltips="1" connect="1" arrows="1" fold="1" page="0" pageScale="1" pageWidth="827" pageHeight="1169" math="0" shadow="0">
      <root>
        <mxCell id="0" />
        <mxCell id="1" parent="0" />
        <mxCell id="wk7HSr77j9lhnAIGQRqM-1" value="cron" style="rounded=0;whiteSpace=wrap;html=1;fontSize=16;" vertex="1" parent="1">
          <mxGeometry x="-371" y="134" width="120" height="60" as="geometry" />
        </mxCell>
        <mxCell id="wk7HSr77j9lhnAIGQRqM-3" value="" style="endArrow=classic;startArrow=classic;html=1;rounded=0;fontSize=12;startSize=8;endSize=8;curved=1;" edge="1" parent="1">
          <mxGeometry width="50" height="50" relative="1" as="geometry">
            <mxPoint x="175" y="365" as="sourcePoint" />
            <mxPoint x="225" y="315" as="targetPoint" />
          </mxGeometry>
        </mxCell>
        <mxCell id="wk7HSr77j9lhnAIGQRqM-4" value="" style="shape=cylinder3;whiteSpace=wrap;html=1;boundedLbl=1;backgroundOutline=1;size=15;fontSize=16;" vertex="1" parent="1">
          <mxGeometry x="56" y="127" width="60" height="80" as="geometry" />
        </mxCell>
        <mxCell id="wk7HSr77j9lhnAIGQRqM-5" value="" style="endArrow=classic;startArrow=classic;html=1;rounded=0;fontSize=12;startSize=8;endSize=8;curved=1;" edge="1" parent="1">
          <mxGeometry width="50" height="50" relative="1" as="geometry">
            <mxPoint x="175" y="365" as="sourcePoint" />
            <mxPoint x="225" y="315" as="targetPoint" />
          </mxGeometry>
        </mxCell>
        <mxCell id="wk7HSr77j9lhnAIGQRqM-6" style="edgeStyle=none;curved=1;rounded=0;orthogonalLoop=1;jettySize=auto;html=1;entryX=0;entryY=0.5;entryDx=0;entryDy=0;entryPerimeter=0;fontSize=12;startSize=8;endSize=8;" edge="1" parent="1" source="wk7HSr77j9lhnAIGQRqM-1" target="wk7HSr77j9lhnAIGQRqM-4">
          <mxGeometry relative="1" as="geometry" />
        </mxCell>
      </root>
    </mxGraphModel>
  </diagram>
</mxfile>
